<?xml version="1.0" encoding="UTF-8"?>
<svg id="Layer_1" data-name="Layer 1" xmlns="http://www.w3.org/2000/svg" viewBox="0 0 382.48 57.9">
  <defs>
    <style>
      .cls-1 {
        fill-rule: evenodd;
      }

      .cls-1, .cls-2 {
        fill: #fff;
      }
    </style>
  </defs>
  <path class="cls-1" d="M32.41,13.63c-7.94,0-14.38,6.53-14.38,14.58s6.44,14.58,14.38,14.58c6.61,0,12.18-4.53,13.86-10.69h-7.78c-1.27,2.04-3.52,3.4-6.08,3.4-3.97,0-7.19-3.26-7.19-7.29s3.22-7.29,7.19-7.29c2.76,0,5.15,1.58,6.36,3.89h7.62c-1.51-6.41-7.2-11.18-13.98-11.18ZM1.45,16.7C9.25,1.69,51.63-5.18,60.05,4.45c8.42,9.63-4.8,49-22.91,53.07C19.01,61.6-6.35,31.71,1.45,16.7Z"/>
  <path class="cls-1" d="M293.25,26c1.84-3.69,5.1-5.64,9.39-5.64v5.64c-5.46-.31-8.93,2.92-9.39,7.59v14.26h-5.87v-27.29h5.87v5.44ZM264.67,25.13c-4.95,0-8.12,3.08-8.12,8.77v.05l14.9-4.46c-1.28-3.08-3.57-4.36-6.79-4.36ZM265.18,43.34c3.01,0,5.77-1.38,7.96-4l3.42,3.18c-3.06,3.74-7.04,5.54-11.74,5.54-8.37,0-14.14-5.59-14.14-13.85s5.26-13.75,13.63-13.85c7.4-.1,12.35,4.46,12.81,11.9l-19.75,5.95c1.33,3.18,4.13,5.13,7.81,5.13ZM230.74,20.36c6.33,0,10.11,4,10.11,10.51v16.98h-5.87v-15.34c0-4.1-2.45-6.62-6.53-6.62-4.85.05-7.76,3.69-7.76,8.51v13.44h-5.87V9.79h5.87v16.1c1.94-3.85,5.41-5.54,10.06-5.54ZM200.37,28.62c-1.89-1.95-4.49-3.13-7.76-3.08-4.7,0-8.06,3.54-8.06,8.72s3.37,8.72,8.06,8.72c3.42,0,6.18-1.13,8.01-3.28l3.27,3.28c-2.45,3.23-6.38,5.08-11.54,5.08-8.06,0-13.68-5.59-13.68-13.8s5.61-13.9,13.68-13.9c4.9,0,8.73,1.59,11.23,4.46l-3.22,3.8ZM170.11,41.59l1.48,4.51c-2.14,1.28-4.44,2-6.53,2-4.29,0-7.76-2.97-7.76-8.92V14.1h5.82v7.49h8.01v4.41h-8.01v12.16c0,3.23,1.07,4.62,3.01,4.62,1.07,0,2.4-.36,3.98-1.18ZM130.66,43.18c4.59,0,7.81-3.23,8.27-7.9v-2c-.46-4.72-3.67-7.95-8.27-7.95-4.9,0-8.32,3.74-8.37,8.98.05,5.18,3.42,8.87,8.37,8.87ZM138.93,20.56h5.82v27.29h-5.82v-4.62c-1.99,3.13-5.21,4.87-9.49,4.87-7.81,0-13.02-5.69-13.02-14s5.16-13.75,12.81-13.8c4.39-.05,7.71,1.69,9.7,4.87v-4.62ZM105.86,28.62c-1.89-1.95-4.49-3.13-7.76-3.08-4.7,0-8.06,3.54-8.06,8.72s3.37,8.72,8.06,8.72c3.42,0,6.18-1.13,8.01-3.28l3.27,3.28c-2.45,3.23-6.38,5.08-11.54,5.08-8.06,0-13.68-5.59-13.68-13.8s5.61-13.9,13.68-13.9c4.9,0,8.73,1.59,11.23,4.46l-3.22,3.8Z"/>
  <g>
    <path class="cls-2" d="M343.56,42.52h-19.15l5.02-3.99c7.41-5.84,11.99-10.87,11.99-17.91s-5.3-11.92-13.18-11.92-12.64,4.44-15.45,8.17c-.41.57-.35,1.12.19,1.66l2.86,2.47c.35.3.67.34.88.31.32-.04.6-.23.86-.59,2.35-3.77,6.25-6.02,10.44-6.02s6.97,2.3,6.97,6.14c0,5.46-4.13,9.24-9.53,13.61l-10.22,8.08c-.45.37-.62.72-.62,1.27l.05,3.34c0,.75.47,1.21,1.21,1.21h27.67c.71,0,1.21-.5,1.21-1.21v-3.4c0-.71-.5-1.21-1.21-1.21Z"/>
    <path class="cls-2" d="M381.27,35.33h-5.59V10.68c0-.71-.5-1.21-1.21-1.21h-5.33c-.58,0-.99.21-1.3.66l-17.14,25.77c-.18.3-.35.62-.35,1.15l.05,2.62c0,.75.47,1.21,1.21,1.21h18v6.25c0,.71.5,1.21,1.21,1.21h3.62c.71,0,1.21-.5,1.21-1.21v-6.25h5.59c.71,0,1.21-.5,1.21-1.21v-3.13c0-.71-.5-1.21-1.21-1.21ZM369.62,17.16v18.17h-12.18l12.18-18.17Z"/>
  </g>
</svg>